<svg xmlns="http://www.w3.org/2000/svg" viewBox="0 0 48 48"><rect width="48" height="48" rx="14" fill="#0b0f1a"/><path d="M19 33.5c-5.3-3.8-9-7.2-9-12.1 0-3.3 2.5-5.9 5.7-5.9 1.9 0 3.5.9 4.6 2.3 1.1-1.4 2.7-2.3 4.6-2.3 3.2 0 5.7 2.6 5.7 5.9 0 4.9-3.7 8.3-9 12.1l-1.3.9-1.3-.9z" fill="#ef4444" opacity=".92"/><path d="M27 36.5c-5.3-3.8-9-7.2-9-12.1 0-3.3 2.5-5.9 5.7-5.9 1.9 0 3.5.9 4.6 2.3 1.1-1.4 2.7-2.3 4.6-2.3 3.2 0 5.7 2.6 5.7 5.9 0 4.9-3.7 8.3-9 12.1l-1.3.9-1.3-.9z" fill="#10b981" opacity=".95"/></svg>
